<svg id="Layer_1" data-name="Layer 1" xmlns="http://www.w3.org/2000/svg" viewBox="0 0 337.21 260.94"><defs><style>.cls-1{fill:#fff;}</style></defs><title>stacked-logo-whitemobile</title><path class="cls-1" d="M260.13,144c-19.57-.46-38.41-7.42-52.25-21.26l-5.5-5.5a60.83,60.83,0,0,0,38.44-55.8C241.2,27.65,212.84,0,179.05,0H90.85a1.12,1.12,0,0,0-1.12,1.12V19.88A1.12,1.12,0,0,0,90.85,21H102.3a1.12,1.12,0,0,1,1.12,1.12V52.83A1.13,1.13,0,0,0,104.54,54H123.3a1.13,1.13,0,0,0,1.12-1.13V22.12A1.12,1.12,0,0,1,125.54,21h53.79c22,0,40.63,18,40.49,40a39.8,39.8,0,0,1-34.54,39.15L173.66,88.52h2.63c15.1,0,27.89-11.82,28.34-26.92A27.8,27.8,0,0,0,176.88,33H140a1.12,1.12,0,0,0-1.12,1.12V52.88A1.12,1.12,0,0,0,140,54h36.66a6.92,6.92,0,0,1,6.94,5.87,6.77,6.77,0,0,1-6.7,7.65H91.26a1.12,1.12,0,0,1-1.12-1.12l0-32.28A1.12,1.12,0,0,0,89,33H59.48a1.12,1.12,0,0,0-1.12,1.12V52.88A1.12,1.12,0,0,0,59.48,54H68a1.12,1.12,0,0,1,1.12,1.12v46.26A1.12,1.12,0,0,1,68,102.5H59.48a1.12,1.12,0,0,0-1.12,1.12v18.76a1.12,1.12,0,0,0,1.12,1.12H79.64A10.5,10.5,0,0,0,90.14,113V89.64a1.12,1.12,0,0,1,1.12-1.12H144l12,12-51.4,0a1.12,1.12,0,0,0-1.12,1.12v40.09a1.13,1.13,0,0,1-1.12,1.13H91.6A1.12,1.12,0,0,0,90.48,144v18.75a1.13,1.13,0,0,0,1.12,1.13h21.22v-.06a9.72,9.72,0,0,0,4.88-.71,11.21,11.21,0,0,0,6.72-10.41V121.5h52.52l15.61,15.62A94.62,94.62,0,0,0,259.42,165a10.75,10.75,0,0,0,10.93-9.78A10.51,10.51,0,0,0,260.13,144Z"/></svg>